<?xml version="1.0" encoding="utf-8"?>
<!-- Generator: Adobe Illustrator 20.1.0, SVG Export Plug-In . SVG Version: 6.00 Build 0)  -->
<svg version="1.1" id="Camada_1" xmlns="http://www.w3.org/2000/svg" xmlns:xlink="http://www.w3.org/1999/xlink" x="0px" y="0px"
	 viewBox="0 0 185 37" style="enable-background:new 0 0 185 37;" xml:space="preserve">
<style type="text/css">
	.st0{fill:url(#SVGID_1_);}
</style>
<g>
	<g>
		
			<linearGradient id="SVGID_1_" gradientUnits="userSpaceOnUse" x1="47.2247" y1="-29.0374" x2="147.581" y2="71.319" gradientTransform="matrix(1 0 0 -1 0 38)">
			<stop  offset="0" style="stop-color:#30495D"/>
			<stop  offset="1" style="stop-color:#00A7C9"/>
		</linearGradient>
		<path class="st0" d="M66.7,9.9H49.6V0l-7.2,2v19.3c0,0.7,0,1.4,0,2.1C42.4,30.9,48.5,37,56,37h10.8c7.5,0,13.6-6.1,13.6-13.6
			C80.2,16,74.1,9.9,66.7,9.9z M66.7,30.1H55.9c-3.5,0-6.3-3.1-6.3-6.6v-6.8h17.1c3.5,0,6.3,2.5,6.3,6.8
			C73,27.5,70.2,30.1,66.7,30.1z M131.4,11.1h-8.9c-3.9,0-7.5,1.7-10,4.4c-2.5-2.7-6-4.4-10-4.4h-8.8c-7.2,0-13.1,5.6-13.5,12.7V37
			h7.1V24.6c0-3.5,2.8-6.3,6.3-6.3h8.9c4.6,0,8.2,2.9,6.3,6.3V37h7.2V24.6c0-3.5,2.8-6.3,6.3-6.3h8.9c3.5,0,6.3,2.8,6.3,6.3V37h7.2
			V24.7C144.9,17.2,138.9,11.1,131.4,11.1z M175.6,0v9.9h-17.1c-7.5,0-13.6,6.1-13.6,13.6s6.1,13.6,13.6,13.6h10.8
			c7.5,0,13.6-6.1,13.6-13.6c0-0.7,0-1.4,0-2.1V2L175.6,0z M175.6,23.4c0,3.5-2.8,6.6-6.3,6.6h-10.8c-3.5,0-6.3-2.7-6.3-6.6
			c0-4.1,2.8-6.8,6.3-6.8h17.1V23.4z M3.9,14.2c-2.2,0-3.9,1.8-3.9,4s1.8,3.9,3.9,3.9h6.7c2.2,0,3.9-1.8,3.9-3.9c0-2.2,0-3.9,0-3.9
			L3.9,14.2z M26.3,4.2C24.5,3,22,3.5,20.9,5.4L17.3,11c-1.2,1.8-0.7,4.3,1.2,5.4c1.8,1.2,3.3,2.1,3.3,2.1l5.8-8.9
			C28.7,7.8,28.2,5.3,26.3,4.2z M23.3,22.2c-1.1-1.9-3.5-2.5-5.4-1.4s-3.4,2-3.4,2l5.4,9.1c1.1,1.9,3.5,2.5,5.4,1.4s2.5-3.5,1.4-5.4
			L23.3,22.2z"/>
	</g>
</g>
</svg>
